<?xml version="1.0" encoding="utf-8"?>
<!-- Generator: Adobe Illustrator 16.0.0, SVG Export Plug-In . SVG Version: 6.00 Build 0)  -->
<!DOCTYPE svg PUBLIC "-//W3C//DTD SVG 1.1//EN" "http://www.w3.org/Graphics/SVG/1.1/DTD/svg11.dtd">
<svg version="1.1" id="Layer_1" xmlns="http://www.w3.org/2000/svg" xmlns:xlink="http://www.w3.org/1999/xlink" x="0px" y="0px"
	 width="619px" height="140px" viewBox="0 0 619 140" enable-background="new 0 0 619 140" xml:space="preserve">
<linearGradient id="SVGID_1_" gradientUnits="userSpaceOnUse" x1="86.5" y1="-165" x2="705.5" y2="-165" gradientTransform="matrix(1 0 0 -1 -86.5 -95)">
	<stop  offset="0" style="stop-color:#4382AB"/>
	<stop  offset="0.2869" style="stop-color:#4998CC"/>
	<stop  offset="0.7177" style="stop-color:#327AA8"/>
	<stop  offset="1" style="stop-color:#4382AB"/>
</linearGradient>
<rect y="-9" fill="url(#SVGID_1_)" width="619" height="158"/>
<g>
	<g>
		<g>
			<defs>
				<path id="SVGID_2_" d="M161.199,25.085c-25.444,0-55.482,20.483-55.482,41.329c0,16.456,11.624,21.572,25.912,27.67
					c6.958,2.974,14.544,4.771,21.732,4.771c6.922,0,8.656-0.908,11.586-1.688c0.535,0.426,1.09,0.833,1.666,1.222l-0.012-0.002
					c0,0,0.061,0.039,0.165,0.107c0.077,0.05,0.152,0.102,0.229,0.152c1.829,1.236,9.68,6.877,15.465,16.145
					c0,0,1.671,0.73,5.952-1.361c0,0-4.178-6.238-4.657-10.146c0.161,0.002,0.316,0.012,0.479,0.012
					c19.885,0,22.219-10.43,22.354-18.584c5.193-2.009,10.089-6.126,10.089-12.03C216.678,65.055,204.712,25.085,161.199,25.085z
					 M184.271,77.251c-4.929,5.06-12.129,7.078-19.019,7.411c-10.253,0.434-20.802-1.905-29.381-7.658
					c-4.198-2.888-7.988-7.165-8.501-12.445c-0.559-5.525,2.495-10.679,6.373-14.36c7.25-6.725,16.981-10.277,26.696-11.466
					c7.102-1.02,14.796,0.064,20.659,4.401c5.335,3.835,8.302,10.277,8.7,16.743C190.292,66.081,188.667,72.682,184.271,77.251z"/>
			</defs>
			<clipPath id="SVGID_3_">
				<use xlink:href="#SVGID_2_"  overflow="visible"/>
			</clipPath>
			<rect x="100.181" y="21" clip-path="url(#SVGID_3_)" width="61" height="98"/>
		</g>
		<g>
			<defs>
				<path id="SVGID_4_" d="M161.199,25.085c-25.444,0-55.482,20.483-55.482,41.329c0,16.456,11.624,21.572,25.912,27.67
					c6.958,2.974,14.544,4.771,21.732,4.771c6.922,0,8.656-0.908,11.586-1.688c0.535,0.426,1.09,0.833,1.666,1.222l-0.012-0.002
					c0,0,0.061,0.039,0.165,0.107c0.077,0.05,0.152,0.102,0.229,0.152c1.829,1.236,9.68,6.877,15.465,16.145
					c0,0,1.671,0.73,5.952-1.361c0,0-4.178-6.238-4.657-10.146c0.161,0.002,0.316,0.012,0.479,0.012
					c19.885,0,22.219-10.43,22.354-18.584c5.193-2.009,10.089-6.126,10.089-12.03C216.678,65.055,204.712,25.085,161.199,25.085z
					 M184.271,77.251c-4.929,5.06-12.129,7.078-19.019,7.411c-10.253,0.434-20.802-1.905-29.381-7.658
					c-4.198-2.888-7.988-7.165-8.501-12.445c-0.559-5.525,2.495-10.679,6.373-14.36c7.25-6.725,16.981-10.277,26.696-11.466
					c7.102-1.02,14.796,0.064,20.659,4.401c5.335,3.835,8.302,10.277,8.7,16.743C190.292,66.081,188.667,72.682,184.271,77.251z"/>
			</defs>
			<clipPath id="SVGID_5_">
				<use xlink:href="#SVGID_4_"  overflow="visible"/>
			</clipPath>
			<rect x="161.181" y="21" clip-path="url(#SVGID_5_)" fill="#FFFFFF" width="61" height="98"/>
		</g>
	</g>
	<g>
		<g id="g384">
			<path id="path386" d="M253.729,64.438c0.112,6.631,4.292,9.362,9.252,9.362c3.511,0,5.685-0.612,7.468-1.393l0.892,3.511
				c-1.728,0.779-4.738,1.729-9.029,1.729c-8.304,0-13.265-5.519-13.265-13.655c0-8.138,4.793-14.492,12.652-14.492
				c8.862,0,11.147,7.691,11.147,12.653c0,1.003-0.056,1.727-0.167,2.285H253.729L253.729,64.438z M268.11,60.925
				c0.056-3.065-1.282-7.915-6.8-7.915c-5.017,0-7.134,4.516-7.525,7.915H268.11z"/>
			<path id="path388" d="M297.313,72.908h-0.111c-1.504,2.619-4.459,4.736-8.806,4.736c-6.298,0-11.426-5.405-11.426-13.598
				c0-10.144,6.521-14.547,12.206-14.547c4.181,0,6.967,2.063,8.305,4.626h0.111l0.167-4.068h4.626
				c-0.111,2.229-0.223,4.625-0.223,7.412v30.599h-4.849V72.908L297.313,72.908z M297.313,60.98c0-0.668-0.056-1.393-0.223-2.006
				c-0.78-3.009-3.344-5.574-7.022-5.574c-5.072,0-8.137,4.292-8.137,10.312c0,5.407,2.563,10.033,7.97,10.033
				c3.177,0,5.908-1.951,7.023-5.295c0.223-0.724,0.39-1.671,0.39-2.396L297.313,60.98L297.313,60.98z"/>
			<path id="path390" d="M332.871,69.621c0,2.841,0.056,5.295,0.224,7.413h-4.349l-0.278-4.403h-0.111
				c-1.226,2.175-4.125,5.017-8.917,5.017c-4.236,0-9.308-2.396-9.308-11.815V50.059h4.905v14.881c0,5.126,1.615,8.639,6.019,8.639
				c3.289,0,5.574-2.285,6.465-4.515c0.279-0.669,0.447-1.561,0.447-2.509V50.059h4.903V69.621L332.871,69.621z"/>
			<path id="path392" d="M346.471,42.478c0,1.672-1.169,3.009-3.121,3.009c-1.784,0-2.955-1.337-2.955-3.009
				s1.229-3.065,3.067-3.065C345.244,39.413,346.471,40.75,346.471,42.478z M341.009,77.032V50.059h4.903v26.975L341.009,77.032
				L341.009,77.032z"/>
			<path id="path394" d="M354.051,57.358c0-2.842-0.058-5.072-0.224-7.301h4.347l0.28,4.458h0.108
				c1.339-2.509,4.459-5.017,8.918-5.017c3.734,0,9.531,2.229,9.531,11.481v16.052h-4.904v-15.55c0-4.348-1.616-7.97-6.241-7.97
				c-3.178,0-5.688,2.285-6.578,5.016c-0.224,0.613-0.334,1.451-0.334,2.286v16.219h-4.904L354.051,57.358L354.051,57.358z"/>
			<path id="path396" d="M409.395,63.322c0,9.977-6.968,14.322-13.433,14.322c-7.245,0-12.93-5.351-12.93-13.876
				c0-8.974,5.963-14.269,13.375-14.269C404.155,49.5,409.395,55.129,409.395,63.322z M388.047,63.602
				c0,5.908,3.345,10.366,8.138,10.366c4.684,0,8.193-4.402,8.193-10.478c0-4.57-2.285-10.311-8.081-10.311
				C390.557,53.179,388.047,58.528,388.047,63.602z"/>
			<path id="path398" d="M417.085,50.059l3.846,5.795c1.061,1.505,1.896,2.843,2.788,4.348h0.108
				c0.894-1.561,1.785-2.955,2.733-4.404l3.731-5.74h5.353L426.448,63.1l9.42,13.933h-5.518l-4.013-6.074
				c-1.06-1.561-1.952-3.065-2.899-4.682h-0.111c-0.892,1.616-1.782,3.066-2.842,4.682l-3.902,6.074h-5.406l9.588-13.766
				l-9.141-13.208H417.085L417.085,50.059z"/>
			<path id="path400" fill="#FFFFFF" d="M440.605,57.358c0-2.842-0.057-5.072-0.224-7.301h4.349l0.277,4.458h0.11
				c1.339-2.509,4.461-5.017,8.92-5.017c3.732,0,9.528,2.229,9.528,11.481v16.052h-4.902v-15.55c0-4.348-1.617-7.97-6.243-7.97
				c-3.179,0-5.687,2.285-6.576,5.016c-0.224,0.613-0.335,1.451-0.335,2.286v16.219h-4.904V57.358z"/>
			<path id="path402" fill="#FFFFFF" d="M474.268,64.438c0.113,6.631,4.292,9.362,9.254,9.362c3.51,0,5.686-0.612,7.468-1.393
				l0.894,3.511c-1.729,0.779-4.738,1.729-9.029,1.729c-8.305,0-13.265-5.519-13.265-13.655c0-8.138,4.793-14.492,12.65-14.492
				c8.861,0,11.147,7.691,11.147,12.653c0,1.003-0.057,1.727-0.168,2.285H474.268L474.268,64.438z M488.648,60.925
				c0.057-3.065-1.282-7.915-6.8-7.915c-5.017,0-7.134,4.516-7.524,7.915H488.648z"/>
			<path id="path404" fill="#FFFFFF" d="M505.368,43.592v6.465h7.022v3.734h-7.022v14.546c0,3.344,0.945,5.238,3.68,5.238
				c1.337,0,2.117-0.11,2.842-0.334l0.224,3.735c-0.947,0.334-2.451,0.668-4.347,0.668c-2.286,0-4.125-0.78-5.297-2.062
				c-1.336-1.507-1.896-3.902-1.896-7.079V53.792h-4.181v-3.734h4.181v-5.018L505.368,43.592z"/>
		</g>
		<g id="g406">
			<path id="path408" d="M338.418,91.085l0.906,3.429c0.18,0.752,0.361,1.448,0.486,2.146h0.043
				c0.153-0.683,0.375-1.407,0.598-2.134l1.103-3.44h1.03l1.046,3.373c0.251,0.81,0.446,1.519,0.6,2.2h0.042
				c0.111-0.682,0.292-1.393,0.516-2.188l0.961-3.386h1.211l-2.174,6.744h-1.114l-1.03-3.219c-0.236-0.754-0.434-1.422-0.602-2.217
				h-0.026c-0.167,0.81-0.377,1.506-0.613,2.229l-1.088,3.205h-1.114l-2.033-6.744L338.418,91.085L338.418,91.085z"/>
			<path id="path410" d="M348.186,87.936h1.226v4.222h0.027c0.195-0.349,0.504-0.668,0.879-0.876
				c0.361-0.208,0.795-0.336,1.254-0.336c0.904,0,2.354,0.559,2.354,2.871v4.015H352.7v-3.876c0-1.086-0.404-1.992-1.562-1.992
				c-0.794,0-1.406,0.559-1.645,1.214c-0.068,0.181-0.084,0.362-0.084,0.584v4.07h-1.226L348.186,87.936L348.186,87.936z"/>
			<path id="path412" d="M356.602,94.68c0.027,1.658,1.072,2.342,2.312,2.342c0.879,0,1.422-0.152,1.867-0.349l0.226,0.877
				c-0.435,0.195-1.187,0.433-2.259,0.433c-2.075,0-3.315-1.379-3.315-3.414c0-2.033,1.198-3.623,3.163-3.623
				c2.216,0,2.787,1.925,2.787,3.164c0,0.25-0.016,0.433-0.041,0.572L356.602,94.68L356.602,94.68z M360.196,93.802
				c0.014-0.765-0.32-1.978-1.699-1.978c-1.254,0-1.784,1.129-1.883,1.978H360.196z"/>
			<path id="path414" d="M362.898,93.188c0-0.793-0.014-1.477-0.056-2.104h1.072l0.057,1.339h0.042
				c0.308-0.905,1.06-1.479,1.881-1.479c0.126,0,0.224,0.016,0.335,0.029v1.155c-0.126-0.028-0.251-0.028-0.419-0.028
				c-0.862,0-1.478,0.643-1.646,1.562c-0.026,0.167-0.041,0.376-0.041,0.57v3.597h-1.227L362.898,93.188L362.898,93.188z"/>
			<path id="path416" d="M367.997,94.68c0.029,1.658,1.074,2.342,2.313,2.342c0.878,0,1.421-0.152,1.867-0.349l0.223,0.877
				c-0.432,0.195-1.184,0.433-2.258,0.433c-2.075,0-3.315-1.379-3.315-3.414c0-2.033,1.198-3.623,3.164-3.623
				c2.215,0,2.785,1.925,2.785,3.164c0,0.25-0.015,0.433-0.041,0.572L367.997,94.68L367.997,94.68z M371.595,93.802
				c0.013-0.765-0.321-1.978-1.701-1.978c-1.254,0-1.783,1.129-1.881,1.978H371.595z"/>
			<path id="path418" fill="#FFFFFF" d="M377.251,87.936h1.212v4.236h0.026c0.433-0.753,1.213-1.227,2.299-1.227
				c1.688,0,2.856,1.394,2.856,3.428c0,2.411-1.532,3.609-3.038,3.609c-0.976,0-1.755-0.377-2.271-1.256h-0.027l-0.069,1.104h-1.045
				c0.027-0.461,0.057-1.145,0.057-1.744V87.936L377.251,87.936z M378.463,95.126c0,0.153,0.014,0.308,0.055,0.444
				c0.224,0.852,0.948,1.436,1.84,1.436c1.296,0,2.048-1.044,2.048-2.591c0-1.353-0.695-2.508-2.02-2.508
				c-0.823,0-1.604,0.585-1.854,1.505c-0.043,0.152-0.069,0.32-0.069,0.515V95.126L378.463,95.126z"/>
			<path id="path420" fill="#FFFFFF" d="M385.178,93.188c0-0.793-0.015-1.477-0.056-2.104h1.072l0.057,1.339h0.041
				c0.307-0.905,1.059-1.479,1.883-1.479c0.124,0,0.222,0.016,0.334,0.029v1.155c-0.126-0.028-0.251-0.028-0.419-0.028
				c-0.863,0-1.478,0.643-1.644,1.562c-0.027,0.167-0.043,0.376-0.043,0.57v3.597h-1.227L385.178,93.188L385.178,93.188z"/>
			<path id="path422" fill="#FFFFFF" d="M394.403,96.212c0,0.586,0.027,1.157,0.098,1.618h-1.102l-0.097-0.852h-0.044
				c-0.374,0.528-1.102,1.004-2.061,1.004c-1.365,0-2.062-0.961-2.062-1.938c0-1.63,1.449-2.521,4.055-2.509v-0.139
				c0-0.543-0.152-1.562-1.533-1.547c-0.641,0-1.295,0.182-1.77,0.5l-0.277-0.82c0.559-0.35,1.379-0.586,2.229-0.586
				c2.062,0,2.562,1.408,2.562,2.746v2.522H394.403z M393.218,94.387c-1.338-0.027-2.855,0.209-2.855,1.521
				c0,0.81,0.527,1.17,1.143,1.17c0.893,0,1.464-0.558,1.658-1.129c0.043-0.14,0.056-0.277,0.056-0.39L393.218,94.387
				L393.218,94.387z"/>
			<path id="path424" fill="#FFFFFF" d="M397.745,89.189c0,0.418-0.293,0.752-0.779,0.752c-0.446,0-0.738-0.334-0.738-0.752
				s0.307-0.767,0.768-0.767C397.439,88.424,397.745,88.758,397.745,89.189z M396.381,97.83v-6.745h1.227v6.745H396.381z"/>
			<path id="path426" fill="#FFFFFF" d="M399.641,92.91c0-0.712-0.015-1.268-0.056-1.825h1.087l0.069,1.114h0.028
				c0.334-0.626,1.114-1.254,2.229-1.254c0.933,0,2.383,0.559,2.383,2.869v4.016h-1.227v-3.889c0-1.086-0.406-1.992-1.562-1.992
				c-0.795,0-1.42,0.57-1.645,1.255c-0.056,0.151-0.084,0.36-0.084,0.571v4.055h-1.227v-4.92H399.641z"/>
			<path id="path428" fill="#FFFFFF" d="M407.372,93.286c0-0.864-0.026-1.562-0.055-2.201h1.086l0.07,1.156h0.027
				c0.488-0.821,1.297-1.296,2.396-1.296c1.645,0,2.871,1.38,2.871,3.414c0,2.425-1.492,3.623-3.08,3.623
				c-0.892,0-1.672-0.391-2.076-1.06h-0.027v3.664h-1.213V93.286L407.372,93.286z M408.585,95.085c0,0.181,0.016,0.349,0.057,0.5
				c0.225,0.851,0.961,1.437,1.841,1.437c1.296,0,2.048-1.06,2.048-2.604c0-1.338-0.711-2.495-2.007-2.495
				c-0.837,0-1.629,0.585-1.854,1.506c-0.041,0.152-0.084,0.333-0.084,0.486V95.085L408.585,95.085z"/>
			<path id="path430" fill="#FFFFFF" d="M421.405,94.4c0,2.494-1.74,3.582-3.356,3.582c-1.812,0-3.233-1.338-3.233-3.471
				c0-2.244,1.49-3.566,3.344-3.566C420.097,90.945,421.405,92.354,421.405,94.4z M416.069,94.471c0,1.478,0.836,2.594,2.034,2.594
				c1.17,0,2.048-1.103,2.048-2.619c0-1.144-0.57-2.578-2.02-2.578C416.694,91.865,416.069,93.204,416.069,94.471z"/>
			<path id="path432" fill="#FFFFFF" d="M423.342,91.085l0.905,3.429c0.182,0.752,0.363,1.448,0.488,2.146h0.041
				c0.153-0.683,0.377-1.407,0.602-2.134l1.099-3.44h1.032l1.046,3.373c0.249,0.81,0.444,1.519,0.599,2.2h0.041
				c0.111-0.682,0.293-1.393,0.516-2.188l0.963-3.386h1.213l-2.176,6.744h-1.113l-1.031-3.219c-0.236-0.754-0.431-1.422-0.599-2.217
				h-0.028c-0.167,0.81-0.376,1.506-0.613,2.229l-1.086,3.205h-1.115l-2.033-6.744L423.342,91.085L423.342,91.085z"/>
			<path id="path434" fill="#FFFFFF" d="M433.653,94.68c0.027,1.658,1.072,2.342,2.312,2.342c0.878,0,1.421-0.152,1.866-0.349
				l0.224,0.877c-0.432,0.195-1.186,0.433-2.257,0.433c-2.077,0-3.316-1.379-3.316-3.414c0-2.033,1.197-3.623,3.163-3.623
				c2.216,0,2.787,1.925,2.787,3.164c0,0.25-0.015,0.433-0.043,0.572L433.653,94.68L433.653,94.68z M437.248,93.802
				c0.014-0.765-0.321-1.978-1.7-1.978c-1.254,0-1.783,1.129-1.881,1.978H437.248z"/>
			<path id="path436" fill="#FFFFFF" d="M439.95,93.188c0-0.793-0.013-1.477-0.056-2.104h1.074l0.055,1.339h0.042
				c0.308-0.905,1.061-1.479,1.881-1.479c0.127,0,0.226,0.016,0.335,0.029v1.155c-0.125-0.028-0.252-0.028-0.419-0.028
				c-0.862,0-1.476,0.643-1.643,1.562c-0.028,0.167-0.043,0.376-0.043,0.57v3.597h-1.228L439.95,93.188L439.95,93.188z"/>
			<path id="path438" d="M447.293,96.589c0.376,0.224,1.017,0.474,1.631,0.474c0.877,0,1.294-0.432,1.294-1.002
				c0-0.586-0.347-0.894-1.239-1.227c-1.227-0.447-1.798-1.102-1.798-1.909c0-1.088,0.893-1.979,2.328-1.979
				c0.683,0,1.282,0.183,1.644,0.419l-0.292,0.892c-0.265-0.167-0.753-0.404-1.379-0.404c-0.725,0-1.115,0.418-1.115,0.92
				c0,0.559,0.392,0.809,1.269,1.156c1.157,0.432,1.77,1.018,1.77,2.021c0,1.199-0.933,2.035-2.508,2.035
				c-0.737,0-1.421-0.196-1.896-0.476L447.293,96.589z"/>
			<path id="path440" d="M454.456,89.469v1.616h1.756v0.935h-1.756v3.637c0,0.837,0.234,1.312,0.919,1.312
				c0.333,0,0.527-0.03,0.71-0.084l0.057,0.933c-0.238,0.084-0.613,0.168-1.087,0.168c-0.571,0-1.032-0.195-1.324-0.516
				c-0.335-0.376-0.474-0.976-0.474-1.77v-3.68h-1.045v-0.935h1.045v-1.254L454.456,89.469z"/>
			<path id="path442" d="M458.955,89.189c0,0.418-0.291,0.752-0.78,0.752c-0.444,0-0.737-0.334-0.737-0.752s0.306-0.767,0.768-0.767
				C458.649,88.424,458.955,88.758,458.955,89.189z M457.591,97.83v-6.745h1.227v6.745H457.591z"/>
			<path id="path444" d="M460.851,87.936h1.228v9.896h-1.228V87.936z"/>
			<path id="path446" d="M464.14,87.936h1.225v9.896h-1.225V87.936z"/>
			<path id="path448" d="M470.381,92.91c0-0.712-0.028-1.268-0.057-1.825h1.073l0.056,1.103h0.043
				c0.376-0.643,1.004-1.242,2.132-1.242c0.904,0,1.604,0.56,1.895,1.353h0.027c0.209-0.39,0.489-0.669,0.767-0.877
				c0.405-0.307,0.838-0.476,1.479-0.476c0.903,0,2.229,0.587,2.229,2.928v3.958h-1.199v-3.806c0-1.31-0.485-2.075-1.462-2.075
				c-0.711,0-1.24,0.516-1.463,1.101c-0.055,0.182-0.097,0.391-0.097,0.613v4.167h-1.199v-4.043c0-1.071-0.474-1.838-1.407-1.838
				c-0.753,0-1.323,0.612-1.519,1.227c-0.068,0.167-0.097,0.39-0.097,0.601v4.055h-1.2L470.381,92.91L470.381,92.91z"/>
			<path id="path450" d="M486.739,96.212c0,0.586,0.027,1.157,0.099,1.618h-1.103l-0.098-0.852h-0.041
				c-0.375,0.528-1.102,1.004-2.062,1.004c-1.364,0-2.062-0.961-2.062-1.938c0-1.63,1.45-2.521,4.055-2.509v-0.139
				c0-0.543-0.153-1.562-1.534-1.547c-0.64,0-1.295,0.182-1.769,0.5l-0.278-0.82c0.56-0.35,1.38-0.586,2.229-0.586
				c2.062,0,2.562,1.408,2.562,2.746L486.739,96.212L486.739,96.212z M485.555,94.387c-1.338-0.027-2.856,0.209-2.856,1.521
				c0,0.81,0.528,1.17,1.143,1.17c0.893,0,1.464-0.558,1.659-1.129c0.041-0.14,0.056-0.277,0.056-0.39L485.555,94.387
				L485.555,94.387z"/>
			<path id="path452" d="M490.138,89.469v1.616h1.756v0.935h-1.756v3.637c0,0.837,0.238,1.312,0.92,1.312
				c0.335,0,0.53-0.03,0.711-0.084l0.056,0.933c-0.235,0.084-0.612,0.168-1.087,0.168c-0.571,0-1.03-0.195-1.323-0.516
				c-0.335-0.376-0.475-0.976-0.475-1.77v-3.68h-1.044v-0.935h1.044v-1.254L490.138,89.469z"/>
			<path id="path454" d="M494.751,89.469v1.616h1.755v0.935h-1.755v3.637c0,0.837,0.235,1.312,0.919,1.312
				c0.335,0,0.528-0.03,0.711-0.084l0.055,0.933c-0.236,0.084-0.613,0.168-1.087,0.168c-0.571,0-1.029-0.195-1.323-0.516
				c-0.334-0.376-0.475-0.976-0.475-1.77v-3.68h-1.044v-0.935h1.044v-1.254L494.751,89.469z"/>
			<path id="path456" d="M498.484,94.68c0.029,1.658,1.072,2.342,2.312,2.342c0.879,0,1.423-0.152,1.868-0.349l0.224,0.877
				c-0.433,0.195-1.185,0.433-2.258,0.433c-2.076,0-3.317-1.379-3.317-3.414c0-2.033,1.198-3.623,3.163-3.623
				c2.216,0,2.787,1.925,2.787,3.164c0,0.25-0.013,0.433-0.041,0.572L498.484,94.68L498.484,94.68z M502.079,93.802
				c0.015-0.765-0.319-1.978-1.7-1.978c-1.253,0-1.783,1.129-1.881,1.978H502.079z"/>
			<path id="path458" d="M504.781,93.188c0-0.793-0.013-1.477-0.054-2.104h1.072l0.057,1.339h0.041
				c0.309-0.905,1.06-1.479,1.881-1.479c0.126,0,0.225,0.016,0.335,0.029v1.155c-0.125-0.028-0.25-0.028-0.418-0.028
				c-0.863,0-1.478,0.643-1.646,1.562c-0.027,0.167-0.04,0.376-0.04,0.57v3.597h-1.229L504.781,93.188L504.781,93.188z"/>
			<path id="path460" d="M509.173,96.589c0.375,0.224,1.017,0.474,1.629,0.474c0.879,0,1.297-0.432,1.297-1.002
				c0-0.586-0.348-0.894-1.241-1.227c-1.226-0.447-1.798-1.102-1.798-1.909c0-1.088,0.893-1.979,2.326-1.979
				c0.684,0,1.282,0.183,1.646,0.419l-0.294,0.892c-0.266-0.167-0.752-0.404-1.38-0.404c-0.724,0-1.114,0.418-1.114,0.92
				c0,0.559,0.392,0.809,1.27,1.156c1.157,0.432,1.771,1.018,1.771,2.021c0,1.199-0.935,2.035-2.509,2.035
				c-0.739,0-1.422-0.196-1.895-0.476L509.173,96.589z"/>
		</g>
	</g>
</g>
</svg>
